<svg id="Calque_1" data-name="Calque 1" xmlns="http://www.w3.org/2000/svg" viewBox="0 0 330 330"><defs><style>.cls-1{fill:#fff;}</style></defs><path class="cls-1" d="M316.25,164.78c2.12,80-65.24,152.85-152.54,151.92-85.06-.91-151-70.46-150-153.44,1-84.66,70-150,151.51-150C253.18,13.33,318.3,87.32,316.25,164.78Zm-29.25.66c2.75-62-50.86-122.86-122.51-122.82C99.72,42.65,42,98.28,43,166.86c.9,67.4,59.57,121.48,123.74,120.62C231.12,286.63,289,231.41,287,165.44Z"/><path class="cls-1" d="M144.83,146.75h42.33v99.89H144.83Z"/><path class="cls-1" d="M165.53,124.88A22.78,22.78,0,0,1,143,101.75c.13-12.69,10.49-23,22.91-22.77,13.21.23,23.23,10.28,23.11,23.18A22.81,22.81,0,0,1,165.53,124.88Z"/></svg>