<?xml version="1.0" encoding="utf-8"?>
<!-- Generator: Adobe Illustrator 26.0.0, SVG Export Plug-In . SVG Version: 6.00 Build 0)  -->
<svg version="1.1" id="Calque_1" xmlns="http://www.w3.org/2000/svg" xmlns:xlink="http://www.w3.org/1999/xlink" x="0px" y="0px"
	 viewBox="0 0 330 300" style="enable-background:new 0 0 330 300;" xml:space="preserve">
<g>
	<path d="M115.4,69.5c6.8-13.1,13.5-25.1,19.3-37.5c2.7-5.8,6.1-7.6,12.4-7.5c26,0.4,51.9,0,77.9,0.2c41.9,0.3,77.6,28,87.3,67.7
		c12.2,49.4-18.5,98.3-68.5,109.2c-1,0.2-2,0.5-4,1c11.1,12.4,21.8,24.3,32.5,36.2c10.7,11.9,21.4,23.8,32.7,36.4
		c-2.3,0.1-3.6,0.3-5,0.3c-17,0-34.1,0.1-51.1-0.1c-2.3,0-5.2-1.3-6.8-2.9c-22.8-25.1-45.5-50.3-68.2-75.6
		c-6.6-7.3-8.4-15.7-4.5-24.7c4-9.2,11.5-13.6,21.6-13.5c11.3,0,22.5,0.1,33.8,0c25-0.2,44.9-19.4,45.1-43.9
		c0.3-24.7-19.2-44.8-44.4-45c-34.7-0.3-69.4-0.1-104.2-0.1C119.8,69.5,118.1,69.5,115.4,69.5z"/>
	<path d="M41,275.4c23.4-46.6,46.3-92.2,69.7-138.6c-32,0-63.3,0-95.7,0c4.1-7.8,7.6-14.7,11.2-21.6c3.5-6.8,6.9-13.7,10.7-20.3
		c0.9-1.5,3.2-3,4.9-3c61.6-0.1,123.2-0.2,184.9-0.1c11.6,0,21.2,9.1,21.9,20.3c0.8,12.4-7.1,22.7-19.3,24.1
		c-6.8,0.8-13.7,0.4-20.6,0.4c-14.2,0.1-28.5,0.2-42.7-0.1c-3.7-0.1-5.5,1.3-7.1,4.5c-21.6,43.3-43.5,86.6-65.1,129.9
		c-1.7,3.4-3.6,4.7-7.5,4.6C71.6,275.3,56.9,275.4,41,275.4z"/>
</g>
</svg>
